<svg width="19" height="20" viewBox="0 0 19 12" fill="black" xmlns="http://www.w3.org/2000/svg"><path fill-rule="evenodd" clip-rule="evenodd" d="M0 1.2C0 0.537259 0.42533 0 0.95 0H16.15C16.6747 0 17.1 0.537258 17.1 1.2V2.4H18.05C18.5747 2.4 19 2.93726 19 3.6V8.4C19 9.06274 18.5747 9.6 18.05 9.6H17.1V10.8C17.1 11.4627 16.6747 12 16.15 12H0.95C0.42533 12 0 11.4627 0 10.8V1.2ZM2.85 2.4C2.32533 2.4 1.9 2.93726 1.9 3.6V8.4C1.9 9.06274 2.32533 9.6 2.85 9.6H14.25C14.7747 9.6 15.2 9.06274 15.2 8.4V3.6C15.2 2.93726 14.7747 2.4 14.25 2.4H2.85Z" /></svg>