<svg width="19" height="20" viewBox="0 0 19 10" fill="black" xmlns="http://www.w3.org/2000/svg"><path d="M3 4C3 3.44771 3.44771 3 4 3C4.55229 3 5 3.44771 5 4V6C5 6.55228 4.55229 7 4 7C3.44771 7 3 6.55228 3 6V4Z" /><path d="M7 3C6.44771 3 6 3.44771 6 4V6C6 6.55228 6.44771 7 7 7C7.55229 7 8 6.55228 8 6V4C8 3.44771 7.55229 3 7 3Z" /><path d="M9 4C9 3.44771 9.44771 3 10 3C10.5523 3 11 3.44771 11 4V6C11 6.55228 10.5523 7 10 7C9.44771 7 9 6.55228 9 6V4Z" /><path d="M13 3C12.4477 3 12 3.44771 12 4V6C12 6.55228 12.4477 7 13 7C13.5523 7 14 6.55228 14 6V4C14 3.44771 13.5523 3 13 3Z" /><path fill-rule="evenodd" clip-rule="evenodd" d="M0 1C0 0.447716 0.42533 0 0.95 0H16.15C16.6747 0 17.1 0.447715 17.1 1V2H18.05C18.5747 2 19 2.44772 19 3V7C19 7.55228 18.5747 8 18.05 8H17.1V9C17.1 9.55228 16.6747 10 16.15 10H0.95C0.42533 10 0 9.55228 0 9V1ZM2.85 2C2.32533 2 1.9 2.44772 1.9 3V7C1.9 7.55228 2.32533 8 2.85 8H14.25C14.7747 8 15.2 7.55228 15.2 7V3C15.2 2.44772 14.7747 2 14.25 2H2.85Z" /></svg>