<svg width="18" height="18" viewBox="0 0 18 18" fill="black" xmlns="http://www.w3.org/2000/svg"><path fill-rule="evenodd" clip-rule="evenodd" d="M3.88708 1.60498C4.22771 1.36756 4.68165 1.40427 5.00568 1.66389L5.37742 1.96174C5.67627 2.20118 6.08364 2.24323 6.44239 2.10929C6.46946 2.09918 6.4966 2.08923 6.52381 2.07944C6.88165 1.95068 7.16407 1.65851 7.23944 1.28576L7.33742 0.801105C7.41921 0.396576 7.74074 0.0784939 8.15163 0.0397734C8.43091 0.0134557 8.7139 0 9 0C9.2861 0 9.56909 0.0134556 9.84837 0.0397734C10.2593 0.0784938 10.5808 0.396577 10.6626 0.801106L10.7606 1.2857C10.8359 1.65847 11.1183 1.95064 11.4762 2.07939C11.5034 2.08919 11.5306 2.09915 11.5577 2.10926C11.9164 2.24319 12.3238 2.20114 12.6226 1.9617L12.9943 1.66389C13.3184 1.40427 13.7723 1.36756 14.1129 1.60498C14.5813 1.93146 15.0175 2.30157 15.4157 2.70947C15.7019 3.00266 15.7438 3.44918 15.5496 3.80996L15.3116 4.25213C15.1324 4.58495 15.1613 4.98751 15.3518 5.31397C15.3687 5.34303 15.3855 5.37222 15.4021 5.40153C15.5896 5.73317 15.9266 5.96187 16.3074 5.97204L16.7872 5.98486C17.2001 5.99589 17.5688 6.25833 17.6777 6.65676C17.8272 7.20359 17.9271 7.77111 17.9723 8.35411C18.0042 8.76403 17.7487 9.13479 17.3667 9.28663L16.9144 9.46637C16.5614 9.60665 16.3241 9.93589 16.2616 10.3106C16.2558 10.3453 16.2498 10.38 16.2435 10.4146C16.1761 10.7864 16.2864 11.1745 16.5684 11.4261L16.9402 11.7579C17.246 12.0308 17.3591 12.465 17.1898 12.8383C16.9515 13.3638 16.6649 13.8624 16.3357 14.3283C16.0966 14.6666 15.6587 14.7872 15.2661 14.6549L14.8153 14.503C14.4529 14.3809 14.0563 14.4808 13.7658 14.7296C13.7422 14.7498 13.7185 14.7699 13.6946 14.7898C13.4043 15.0322 13.2402 15.4011 13.2955 15.7751L13.3694 16.275C13.4295 16.6807 13.2378 17.0869 12.8681 17.2646C12.3597 17.5089 11.825 17.7065 11.2694 17.852C10.8693 17.9567 10.4575 17.7669 10.2426 17.4136L9.98832 16.9958C9.79014 16.67 9.42389 16.4912 9.04261 16.4933C9.02844 16.4934 9.01426 16.4935 9.00007 16.4935C8.98584 16.4935 8.97162 16.4934 8.95741 16.4933C8.57613 16.4912 8.20986 16.67 8.01168 16.9958L7.75743 17.4136C7.54248 17.7669 7.1307 17.9567 6.73062 17.852C6.17503 17.7065 5.64031 17.5089 5.13189 17.2646C4.76216 17.0869 4.57052 16.6808 4.63056 16.275L4.70452 15.775C4.75986 15.401 4.59569 15.0321 4.30544 14.7898C4.28159 14.7698 4.25787 14.7498 4.23427 14.7296C3.94381 14.4808 3.54722 14.3809 3.18479 14.503L2.73392 14.6549C2.34133 14.7872 1.90342 14.6666 1.66434 14.3283C1.33511 13.8624 1.04848 13.3638 0.810168 12.8383C0.640884 12.465 0.753973 12.0308 1.05981 11.7579L1.43177 11.426C1.71372 11.1744 1.82407 10.7863 1.75664 10.4145C1.75038 10.38 1.74435 10.3453 1.73856 10.3106C1.67608 9.93594 1.43877 9.60671 1.08578 9.46643L0.633343 9.28663C0.251262 9.13479 -0.00416092 8.76403 0.0276517 8.35411C0.0728972 7.77111 0.172824 7.20359 0.322267 6.65676C0.431152 6.25833 0.799949 5.99589 1.21284 5.98486L1.69273 5.97204C2.07358 5.96186 2.41053 5.73317 2.59806 5.40153C2.61462 5.37225 2.63136 5.3431 2.6483 5.31408C2.83879 4.98763 2.86766 4.58507 2.68852 4.25226L2.45044 3.80996C2.25624 3.44918 2.29809 3.00266 2.5843 2.70947C2.98249 2.30157 3.41868 1.93146 3.88708 1.60498ZM9.00007 13.1948C11.2594 13.1948 13.091 11.3487 13.091 9.0714C13.091 6.79413 11.2594 4.94804 9.00007 4.94804C6.74071 4.94804 4.90913 6.79413 4.90913 9.0714C4.90913 11.3487 6.74071 13.1948 9.00007 13.1948Z" /></svg>