<svg width="15" height="13" viewBox="0 0 15 13" fill="black" xmlns="http://www.w3.org/2000/svg"><path d="M6.7488 0.64585C7.2031 0.919016 7.7969 0.919017 8.2512 0.645851C8.93141 0.236843 9.73824 0 10.6034 0C13.0316 0 15 1.86542 15 4.16654C15 5.3145 14.5101 6.35404 13.7177 7.10763L8.18787 12.3481C7.80214 12.7137 7.19786 12.7137 6.81214 12.3481L1.28865 7.11361L1.28679 7.11185C1.28531 7.11044 1.28382 7.10903 1.28234 7.10763C0.489879 6.35404 0 5.3145 0 4.16654C0 1.86542 1.9684 0 4.39655 0C5.26176 0 6.06859 0.236843 6.7488 0.64585Z" /></svg>