<svg width="19" height="20" viewBox="0 0 19 12" fill="black" xmlns="http://www.w3.org/2000/svg"><path d="M4 3.6C3.44771 3.6 3 4.13726 3 4.8V7.2C3 7.86274 3.44771 8.4 4 8.4C4.55229 8.4 5 7.86274 5 7.2V4.8C5 4.13726 4.55229 3.6 4 3.6Z" /><path fill-rule="evenodd" clip-rule="evenodd" d="M0.95 0C0.42533 0 0 0.537259 0 1.2V10.8C0 11.4627 0.42533 12 0.95 12H16.15C16.6747 12 17.1 11.4627 17.1 10.8V9.6H18.05C18.5747 9.6 19 9.06274 19 8.4V3.6C19 2.93726 18.5747 2.4 18.05 2.4H17.1V1.2C17.1 0.537258 16.6747 0 16.15 0H0.95ZM1.9 3.6C1.9 2.93726 2.32533 2.4 2.85 2.4H14.25C14.7747 2.4 15.2 2.93726 15.2 3.6V8.4C15.2 9.06274 14.7747 9.6 14.25 9.6H2.85C2.32533 9.6 1.9 9.06274 1.9 8.4V3.6Z" /></svg>