<svg width="16" height="16" viewBox="0 0 16 16" fill="black" xmlns="http://www.w3.org/2000/svg"><path d="M9.87095 11.6667L13.8203 15.3891C14.3349 15.8742 15.1453 15.8502 15.6303 15.3356C16.1154 14.821 16.0914 14.0106 15.5768 13.5256L2.15873 0.878257C1.64411 0.393206 0.833726 0.41717 0.348675 0.931782C-0.136377 1.44639 -0.112413 2.25678 0.4022 2.74183L3.41243 5.57915C3.37583 5.83514 3.35687 6.09709 3.35687 6.36364V9.40336L2.53968 10.8712C2.34286 11.2247 2.58889 11.6667 2.98253 11.6667H9.87095Z" /><path d="M13.584 6.36364V9.13905L5.82416 1.825C6.34452 1.49801 6.92561 1.26454 7.54576 1.14708C7.556 1.11787 7.56894 1.08895 7.58472 1.06061L8.02756 0.265151C8.22438 -0.0883837 8.71644 -0.0883837 8.91326 0.265151L9.3561 1.06061C9.37188 1.08895 9.38482 1.11787 9.39506 1.14708C11.7778 1.59838 13.584 3.76227 13.584 6.36364Z" /><path d="M8.65013 14C9.56566 14 10.3231 13.2979 10.449 12.3846H6.85123C6.9772 13.2979 7.73461 14 8.65013 14Z" /></svg>