<svg width="18" height="17" viewBox="0 0 18 17" fill="black" xmlns="http://www.w3.org/2000/svg"><path fill-rule="evenodd" clip-rule="evenodd" d="M12.8002 16.8946C11.6391 17.4278 10.8713 15.8265 10.57 14.6005C10.1133 12.7418 6.94959 12.2482 4.29078 12.1213C2.93602 12.0566 0.936313 12.4503 0.45 11.1842C0.0758334 10.2101 0 9.96356 0 8.86042C0 3.96695 4.02944 0 9 0C13.9706 0 18 3.96695 18 8.86042C18 12.417 15.8715 15.4841 12.8002 16.8946ZM7.22463 10.5688C8.92651 11.1681 10.6763 10.6353 11.1329 9.37865C11.5894 8.12204 10.5799 6.61751 8.87805 6.01818C7.17618 5.41884 5.42641 5.95167 4.96983 7.20828C4.51325 8.46489 5.52276 9.96943 7.22463 10.5688ZM10.6364 3.22197C10.6364 4.11169 9.90374 4.83296 9 4.83296C8.09626 4.83296 7.36364 4.11169 7.36364 3.22197C7.36364 2.33225 8.09626 1.61099 9 1.61099C9.90374 1.61099 10.6364 2.33225 10.6364 3.22197ZM13.0909 6.44394C13.9946 6.44394 14.7273 5.72268 14.7273 4.83296C14.7273 3.94323 13.9946 3.22197 13.0909 3.22197C12.1872 3.22197 11.4545 3.94323 11.4545 4.83296C11.4545 5.72268 12.1872 6.44394 13.0909 6.44394ZM16.3636 8.86042C16.3636 9.75014 15.631 10.4714 14.7273 10.4714C13.8235 10.4714 13.0909 9.75014 13.0909 8.86042C13.0909 7.9707 13.8235 7.24943 14.7273 7.24943C15.631 7.24943 16.3636 7.9707 16.3636 8.86042ZM13.0909 14.4989C13.9946 14.4989 14.7273 13.7776 14.7273 12.8879C14.7273 11.9982 13.9946 11.2769 13.0909 11.2769C12.1872 11.2769 11.4545 11.9982 11.4545 12.8879C11.4545 13.7776 12.1872 14.4989 13.0909 14.4989Z" /></svg>