<svg width="17" height="18" viewBox="0 0 17 17" fill="black" xmlns="http://www.w3.org/2000/svg"><path d="M6.28261 14.7826C6.28261 16.0072 7.27537 17 8.5 17C9.72463 17 10.7174 16.0072 10.7174 14.7826V10.7174H14.7826C16.0072 10.7174 17 9.72463 17 8.5C17 7.27537 16.0072 6.28261 14.7826 6.28261H10.7174V2.21739C10.7174 0.99276 9.72463 0 8.5 0C7.27537 1.76222e-07 6.28261 0.992761 6.28261 2.21739V6.28261H2.21739C0.99276 6.28261 0 7.27537 0 8.5C0 9.72463 0.99276 10.7174 2.21739 10.7174H6.28261V14.7826Z" /></svg>