<svg width="16" height="17" viewBox="0 0 16 17" fill="black" xmlns="http://www.w3.org/2000/svg"><path d="M14.9336 11.2925C15.3667 11.4266 15.6015 11.92 15.397 12.3409C14.0543 15.1054 11.3072 17 8.13657 17C3.64287 17 0 13.1944 0 8.5C0 3.80558 3.64287 0 8.13657 0C10.1048 0 11.9098 0.730055 13.3169 1.94509C13.6468 2.22992 13.6447 2.74587 13.342 3.06201L12.2804 4.17108C11.9778 4.48722 11.49 4.48132 11.1452 4.21654C10.3027 3.56965 9.26234 3.1875 8.13657 3.1875C5.32801 3.1875 3.05121 5.56599 3.05121 8.5C3.05121 11.434 5.32801 13.8125 8.13657 13.8125C9.97607 13.8125 11.5875 12.7922 12.4804 11.2637C12.6839 10.9155 13.0772 10.7179 13.4517 10.8338L14.9336 11.2925Z" /><path d="M13.6171 1.74498C14.0338 1.29906 14.7563 1.49161 14.9176 2.09156L15.9703 6.00665C16.1316 6.6066 15.6107 7.164 15.0327 7.00996L11.2608 6.00477C10.6827 5.85074 10.4811 5.10079 10.8978 4.65488L13.6171 1.74498Z" /></svg>