<svg width="18" height="18" viewBox="0 0 18 18" fill="black" xmlns="http://www.w3.org/2000/svg"><path d="M13 4C13 5.36314 12.3181 6.56703 11.2769 7.28918C13.0468 7.74838 14.607 8.73037 15.7838 10.0611C15.5284 10.0209 15.2667 10 15 10C12.2386 10 10 12.2386 10 15H1.12633C0.527108 15 0.0582436 14.474 0.202289 13.8923C1.00124 10.6662 3.51832 8.12066 6.72313 7.28918C5.68187 6.56703 5 5.36314 5 4C5 1.79086 6.79086 0 9 0C11.2091 0 13 1.79086 13 4Z" /><path d="M13.5555 11.9785C13.1836 11.5702 12.5511 11.5408 12.1429 11.9127C11.7346 12.2847 11.7052 12.9172 12.0771 13.3254L12.4138 13.695C12.7858 14.1033 12.7563 14.7358 12.3481 15.1077L11.9785 15.4444C11.5702 15.8164 11.5408 16.4489 11.9127 16.8571C12.2847 17.2654 12.9172 17.2948 13.3254 16.9229L13.695 16.5861C14.1033 16.2142 14.7358 16.2436 15.1077 16.6519L15.4444 17.0215C15.8164 17.4298 16.4489 17.4592 16.8571 17.0873C17.2654 16.7153 17.2948 16.0828 16.9229 15.6746L16.5861 15.305C16.2142 14.8967 16.2436 14.2642 16.6519 13.8923L17.0215 13.5555C17.4298 13.1836 17.4592 12.5511 17.0873 12.1429C16.7153 11.7346 16.0828 11.7052 15.6746 12.0771L15.305 12.4138C14.8967 12.7858 14.2642 12.7563 13.8923 12.3481L13.5555 11.9785Z" /></svg>