<svg width="16" height="20" viewBox="0 0 16 16" fill="black" xmlns="http://www.w3.org/2000/svg"><path d="M15.9845 3.29201C15.8309 4.79804 14.5533 5.97328 13 5.97328C12.8157 5.97328 12.6352 5.95673 12.46 5.92503C12.4583 5.92473 12.4566 5.92442 12.4549 5.92411C11.7081 5.78923 10.8988 5.69773 10.2387 6.07013L6.35479 8.26119L10.0247 10.0365C10.6456 10.3368 11.3692 10.2459 12.0479 10.1067C12.0816 10.0971 12.1151 10.0873 12.1485 10.0775C12.4184 9.99809 12.7042 9.95547 13 9.95547C14.6569 9.95547 16 11.2926 16 12.9421C16 14.3569 15.0118 15.542 13.6851 15.8505C13.3895 15.9475 13.0735 16 12.7453 16C11.2043 16 9.93467 14.8433 9.76464 13.3545C9.52308 13.0347 9.2335 12.7639 8.86476 12.6048L5.64913 11.2176C5.02843 10.9498 4.32205 11.0619 3.66212 11.2099C3.4491 11.2577 3.22751 11.2829 3 11.2829C1.34315 11.2829 0 9.9457 0 8.29622C0 8.28936 2.32773e-05 8.2825 6.97576e-05 8.27564C2.32781e-05 8.26879 0 8.26192 0 8.25506C0 6.60558 1.34315 5.26842 3 5.26842C3.18421 5.26842 3.36455 5.28495 3.53959 5.3166C4.27128 5.4489 5.06223 5.5394 5.71377 5.18251L9.02724 3.3675C9.63304 3.03566 9.97749 2.39153 10.2621 1.76398C10.2631 1.76183 10.264 1.75968 10.265 1.75753C10.2947 1.69206 10.3268 1.62785 10.361 1.56501C10.8687 0.632914 11.8601 0 13 0C13.4142 0 13.8088 0.0835728 14.1677 0.234705C15.2445 0.688102 16 1.74953 16 2.98664C16 3.08973 15.9948 3.19161 15.9845 3.29201Z" /></svg>