<svg width="17" height="20" viewBox="0 0 17 17" fill="black" xmlns="http://www.w3.org/2000/svg"><path d="M1.40415 15.5959C0.381823 14.5735 0.381823 12.916 1.40415 11.8937L4.79782 8.5L1.40415 5.10634C0.381824 4.08401 0.381823 2.42649 1.40415 1.40416C2.42648 0.381827 4.084 0.381827 5.10633 1.40416L8.5 4.79782L11.8937 1.40416C12.916 0.381827 14.5735 0.381826 15.5958 1.40416C16.6182 2.42648 16.6182 4.08401 15.5958 5.10634L12.2022 8.5L15.5958 11.8937C16.6182 12.916 16.6182 14.5735 15.5958 15.5959C14.5735 16.6182 12.916 16.6182 11.8937 15.5958L8.5 12.2022L5.10633 15.5958C4.084 16.6182 2.42648 16.6182 1.40415 15.5959Z" /></svg>