<svg width="16" height="20" viewBox="0 0 16 20" fill="black" xmlns="http://www.w3.org/2000/svg"><path fill-rule="evenodd" clip-rule="evenodd" d="M7 1C7 0.447715 7.44771 0 8 0C8.55228 0 9 0.447715 9 1H15C15.5523 1 16 1.44772 16 2C16 2.55229 15.5523 3 15 3H1C0.447715 3 0 2.55229 0 2C0 1.44772 0.447715 1 1 1H7ZM0 5.5C0 4.94771 0.447715 4.5 1 4.5H15C15.5523 4.5 16 4.94771 16 5.5C16 6.05229 15.5523 6.5 15 6.5V18C15 19.1046 14.1046 20 13 20H3C1.89543 20 1 19.1046 1 18V6.5C0.447715 6.5 0 6.05229 0 5.5ZM4 7C3.44772 7 3 7.44771 3 8V17C3 17.5523 3.44772 18 4 18C4.55228 18 5 17.5523 5 17V8C5 7.44772 4.55228 7 4 7ZM7 8C7 7.44771 7.44772 7 8 7C8.55229 7 9 7.44772 9 8V17C9 17.5523 8.55229 18 8 18C7.44772 18 7 17.5523 7 17V8ZM12 7C11.4477 7 11 7.44771 11 8V17C11 17.5523 11.4477 18 12 18C12.5523 18 13 17.5523 13 17V8C13 7.44772 12.5523 7 12 7Z" /></svg>