<svg width="15" height="14" viewBox="0 0 15 7" fill="black" xmlns="http://www.w3.org/2000/svg"><path d="M8.6341 3.40162C9.13078 3.06461 9.45603 2.5028 9.45603 1.86667C9.45603 0.835735 8.60179 0 7.54803 0C6.49427 0 5.64003 0.835735 5.64003 1.86667C5.64003 2.5028 5.96528 3.06461 6.46196 3.40162C4.93326 3.78964 3.73261 4.97755 3.35152 6.48308C3.28281 6.75452 3.50645 7 3.79228 7H11.3038C11.5896 7 11.8132 6.75452 11.7445 6.48308C11.3634 4.97755 10.1628 3.78964 8.6341 3.40162Z" /><path d="M11.6007 7H14.6661C14.8766 7 15.0414 6.81998 14.9908 6.62093C14.7101 5.51687 13.8256 4.64574 12.6995 4.36119C13.0654 4.11405 13.305 3.70205 13.305 3.23556C13.305 2.47954 12.6757 1.86667 11.8995 1.86667C11.1233 1.86667 10.494 2.47954 10.494 3.23556C10.494 3.70205 10.7336 4.11405 11.0995 4.36119C11.0085 4.38416 10.9192 4.41096 10.8316 4.44139C11.4139 4.98733 11.8411 5.69128 12.0415 6.48308C12.1102 6.75452 11.8866 7 11.6007 7Z" /><path d="M0.333902 7H3.39623C3.11185 6.99828 2.89001 6.75358 2.95848 6.48309C3.15891 5.69128 3.58604 4.98733 4.16835 4.44139C4.08078 4.41095 3.99145 4.38416 3.90054 4.36119C4.26641 4.11405 4.506 3.70205 4.506 3.23556C4.506 2.47954 3.87673 1.86667 3.1005 1.86667C2.32427 1.86667 1.69501 2.47954 1.69501 3.23556C1.69501 3.70205 1.9346 4.11405 2.30047 4.36119C1.17438 4.64574 0.289947 5.51687 0.00921758 6.62093C-0.0413961 6.81998 0.12335 7 0.333902 7Z" />
</svg>
