<svg width="512" height="512" viewBox="0 0 512 512" fill="none" xmlns="http://www.w3.org/2000/svg">
<circle cx="256" cy="256" r="256" fill="#374151"/>
<path d="M252.398 86.1308C253.895 81.5242 260.412 81.5242 261.908 86.1307L297.196 194.733C297.865 196.793 299.785 198.188 301.951 198.188H416.142C420.986 198.188 423 204.386 419.081 207.233L326.698 274.353C324.946 275.627 324.213 277.883 324.882 279.943L360.169 388.546C361.666 393.153 356.394 396.983 352.475 394.136L260.092 327.016C258.34 325.743 255.967 325.743 254.214 327.016L161.831 394.136C157.913 396.983 152.641 393.153 154.137 388.546L189.424 279.943C190.094 277.883 189.36 275.627 187.608 274.353L95.2252 207.233C91.3066 204.386 93.3205 198.188 98.1641 198.188H212.356C214.522 198.188 216.441 196.793 217.111 194.733L252.398 86.1308Z" fill="white"/>
</svg>
