<svg width="18" height="18" viewBox="0 0 18 18" fill="black" xmlns="http://www.w3.org/2000/svg"><path d="M13 4C13 5.36314 12.3181 6.56703 11.2769 7.28918C13.0468 7.74838 14.607 8.73037 15.7838 10.0611C15.5284 10.0209 15.2667 10 15 10C12.2386 10 10 12.2386 10 15H1.12633C0.527108 15 0.0582436 14.474 0.202289 13.8923C1.00124 10.6662 3.51832 8.12066 6.72313 7.28918C5.68187 6.56703 5 5.36314 5 4C5 1.79086 6.79086 0 9 0C11.2091 0 13 1.79086 13 4Z" /><path d="M15.5 12C15.5 11.4477 15.0523 11 14.5 11C13.9477 11 13.5 11.4477 13.5 12V12.5C13.5 13.0523 13.0523 13.5 12.5 13.5H12C11.4477 13.5 11 13.9477 11 14.5C11 15.0523 11.4477 15.5 12 15.5H12.5C13.0523 15.5 13.5 15.9477 13.5 16.5V17C13.5 17.5523 13.9477 18 14.5 18C15.0523 18 15.5 17.5523 15.5 17V16.5C15.5 15.9477 15.9477 15.5 16.5 15.5H17C17.5523 15.5 18 15.0523 18 14.5C18 13.9477 17.5523 13.5 17 13.5H16.5C15.9477 13.5 15.5 13.0523 15.5 12.5V12Z" /></svg>