<svg width="18" height="16" viewBox="0 0 20 16" fill="black" xmlns="http://www.w3.org/2000/svg"><path fill-rule="evenodd" clip-rule="evenodd" d="M1.46832 13.7807C0.0894228 11.8783 0.492086 9.29375 2.28677 7.99293L11.8493 1.06183C12.1112 0.871979 12.4893 0.946773 12.6938 1.22889C12.8983 1.511 12.8517 1.89361 12.5898 2.08346L3.02726 9.01456C1.71534 9.96547 1.47828 11.7983 2.41685 13.0932C3.35542 14.3881 5.17099 14.7331 6.48292 13.7822L17.9204 5.49202C18.7146 4.9164 18.845 3.81982 18.2927 3.05781C17.7404 2.29579 16.6576 2.07854 15.8635 2.65416L6.48848 9.44936C6.10854 9.72475 6.0634 10.2323 6.30673 10.5681C6.55006 10.9038 7.0465 11.0188 7.42644 10.7434L14.9264 5.30726C15.1884 5.11741 15.5665 5.19221 15.771 5.47432C15.9754 5.75643 15.9289 6.13904 15.6669 6.32889L8.16694 11.765C7.30424 12.3903 6.04186 12.1988 5.3582 11.2556C4.67454 10.3124 4.88528 9.05303 5.74798 8.42773L15.123 1.63253C16.3999 0.707001 18.2486 1.00078 19.2412 2.37029C20.2339 3.73981 19.9378 5.58811 18.6609 6.51365L7.22341 14.8038C5.42873 16.1046 2.84722 15.6831 1.46832 13.7807Z" /></svg>