<svg width="13" height="16" viewBox="0 0 13 12" fill="black" xmlns="http://www.w3.org/2000/svg"><path d="M13 1.5C13 0.671573 12.3153 0 11.4706 0H1.52941C0.68474 0 -2.38419e-07 0.671573 -2.38419e-07 1.5C-2.38419e-07 2.32843 0.68474 3 1.52941 3H11.4706C12.3153 3 13 2.32843 13 1.5Z" /><path d="M13 6C13 5.17157 12.3153 4.5 11.4706 4.5H1.52941C0.68474 4.5 -2.38419e-07 5.17157 -2.38419e-07 6C-2.38419e-07 6.82843 0.68474 7.5 1.52941 7.5H11.4706C12.3153 7.5 13 6.82843 13 6Z" /><path d="M11.4706 9C12.3153 9 13 9.67157 13 10.5C13 11.3284 12.3153 12 11.4706 12H1.52941C0.68474 12 -2.38419e-07 11.3284 -2.38419e-07 10.5C-2.38419e-07 9.67157 0.68474 9 1.52941 9H11.4706Z" /></svg>