<svg width="12" height="14" viewBox="0 0 12 14" fill="black" xmlns="http://www.w3.org/2000/svg"><path d="M5.55715 0.265151C5.75397 -0.0883838 6.24602 -0.0883838 6.44285 0.265151L6.88569 1.06061C6.90147 1.08895 6.91441 1.11787 6.92465 1.14708C9.3074 1.59838 11.1135 3.76227 11.1135 6.36364V9.40336L11.9307 10.8712C12.1275 11.2247 11.8815 11.6667 11.4879 11.6667H0.512118C0.118477 11.6667 -0.127549 11.2247 0.0692712 10.8712L0.886455 9.40336V6.36364C0.886455 3.76227 2.6926 1.59838 5.07535 1.14708C5.08559 1.11787 5.09853 1.08895 5.11431 1.06061L5.55715 0.265151Z" /><path d="M6.17972 14C7.09525 14 7.85266 13.2979 7.97863 12.3846H4.38082C4.50679 13.2979 5.2642 14 6.17972 14Z" /></svg>