<svg width="16" height="16" viewBox="0 0 16 16" fill="black" xmlns="http://www.w3.org/2000/svg"><path d="M8.90098 0.877919C9.10918 0.212832 9.80251 -0.152853 10.4496 0.0611406C11.0966 0.275134 11.4524 0.987771 11.2442 1.65286L7.02789 15.1221C6.81969 15.7872 6.12637 16.1529 5.4793 15.9389C4.83223 15.7249 4.47646 15.0122 4.68466 14.3471L8.90098 0.877919Z" /><path d="M5.26787 10.4616L2.84122 8.08858L6.37766 4.63028C6.87936 4.13966 6.90196 3.3208 6.42812 2.80132C5.95429 2.28184 5.16346 2.25844 4.66175 2.74906L0.548201 6.77173C-0.182734 7.48652 -0.182733 8.69065 0.548201 9.40544L4.41484 13.1867L5.26787 10.4616Z" /><path d="M13.1588 8.08859L10.6352 5.62078L11.4882 2.89574L15.4518 6.77174C16.1827 7.48652 16.1827 8.69065 15.4518 9.40544L11.3383 13.4281C10.8365 13.9187 10.0457 13.8953 9.57188 13.3759C9.09804 12.8564 9.12064 12.0375 9.62234 11.5469L13.1588 8.08859Z" /></svg>