<svg width="13" height="15" viewBox="0 0 13 15" fill="black" xmlns="http://www.w3.org/2000/svg"><path d="M5.57143 0H1.2381C0.554314 0 0 0.583976 0 1.30435V11.087C0 11.8073 0.554314 12.3913 1.2381 12.3913H3.09524V3.53547C3.09524 2.66344 3.76042 1.95652 4.58095 1.95652H5.57143V0Z" /><path d="M6.75642 0.382035L8.92308 1.95652H6.80952C6.46763 1.95652 6.19048 1.66453 6.19048 1.30435V0.0414146C6.40282 0.0991814 6.5987 0.21588 6.75642 0.382035Z" /><path d="M4.95238 2.6087H9.28572V4.56522C9.28572 4.9254 9.56287 5.21739 9.90476 5.21739H12.9732C12.9909 5.30555 13 5.39604 13 5.48753V13.6957C13 14.416 12.4457 15 11.7619 15H4.95238C4.2686 15 3.71429 14.416 3.71429 13.6957V3.91304C3.71429 3.19267 4.2686 2.6087 4.95238 2.6087Z" /><path d="M10.4707 2.99073L12.6374 4.56522H10.5238C10.1819 4.56522 9.90476 4.27323 9.90476 3.91304V2.65011C10.1171 2.70788 10.313 2.82458 10.4707 2.99073Z" /></svg>