<svg width="16" height="19" viewBox="0 0 16 19" fill="black" xmlns="http://www.w3.org/2000/svg"><path d="M12.0696 0.358421C12.2632 0.0156751 12.6921 -0.101758 13.0275 0.0961262L14.8493 1.17103C15.1847 1.36891 15.2996 1.80718 15.1059 2.14992L9.8468 11.4589C9.65316 11.8016 9.2243 11.919 8.88891 11.7211L7.06709 10.6462C6.7317 10.4484 6.61679 10.0101 6.81043 9.66735L12.0696 0.358421Z" /><path d="M6.68524 14.7512C6.20395 15.073 5.56908 14.6984 5.60117 14.1116L5.72311 11.8813C5.75226 11.3481 6.32131 11.0337 6.77384 11.3007L8.48094 12.3079C8.93348 12.5749 8.95153 13.2358 8.51428 13.5281L6.68524 14.7512Z" /><path d="M4 3.30435H8.99168L7.5907 5.78261H4C3.11634 5.78261 2.4 6.52231 2.4 7.43478V14.8696C2.4 15.782 3.11634 16.5217 4 16.5217H12C12.8837 16.5217 13.6 15.782 13.6 14.8696V7.43478C13.6 7.21201 13.5573 6.99954 13.4799 6.80562L14.7947 4.47974C15.5384 5.22976 16 6.2766 16 7.43478V14.8696C16 17.1507 14.2091 19 12 19H4C1.79086 19 0 17.1507 0 14.8696V7.43478C0 5.15361 1.79086 3.30435 4 3.30435Z" /></svg>