<svg width="19" height="20" viewBox="0 0 19 10" fill="black" xmlns="http://www.w3.org/2000/svg"><path fill-rule="evenodd" clip-rule="evenodd" d="M0 1C0 0.447716 0.42533 0 0.95 0H16.15C16.6747 0 17.1 0.447715 17.1 1V2H18.05C18.5747 2 19 2.44772 19 3V7C19 7.55228 18.5747 8 18.05 8H17.1V9C17.1 9.55228 16.6747 10 16.15 10H0.95C0.42533 10 0 9.55228 0 9V1ZM2.85 2C2.32533 2 1.9 2.44772 1.9 3V7C1.9 7.55228 2.32533 8 2.85 8H14.25C14.7747 8 15.2 7.55228 15.2 7V3C15.2 2.44772 14.7747 2 14.25 2H2.85Z" /></svg>