<svg width="16" height="16" viewBox="0 0 16 10" fill="black" xmlns="http://www.w3.org/2000/svg"><path d="M14.714 0C14.9333 0 15.1111 0.20003 15.1111 0.44678C15.1111 0.611485 15.0306 0.762831 14.9015 0.840608L8.41976 4.74703C8.15755 4.90505 7.84246 4.90505 7.58025 4.74703L1.09849 0.840608C0.969438 0.762831 0.888889 0.611485 0.888889 0.44678C0.888889 0.20003 1.06669 0 1.28603 0H14.714Z" /><path d="M14.5975 1.40125C15.1862 0.932386 16 1.40597 16 2.21742V9C16 9.55229 15.602 10 15.1111 10H0.888889C0.39797 10 0 9.55229 0 9V2.21742C0 1.40597 0.813802 0.932387 1.4025 1.40125L7.48639 6.24674C7.79414 6.49184 8.20586 6.49184 8.51361 6.24674L14.5975 1.40125Z" /></svg>