<svg width="15" height="19" viewBox="0 0 15 19" fill="black" xmlns="http://www.w3.org/2000/svg"><path fill-rule="evenodd" clip-rule="evenodd" d="M9 0H2C0.895431 0 0 0.895431 0 2V17C0 18.1046 0.895431 19 2 19H13C14.1046 19 15 18.1046 15 17V4.41421C15 4.27393 14.9853 4.13517 14.9566 4H10C9.44772 4 9 3.55229 9 3V0ZM14.4142 3H11C10.4477 3 10 2.55229 10 2V0.0635023C10.343 0.152078 10.6594 0.331016 10.9142 0.585786L14.4142 3ZM2 7C2 6.44772 2.44772 6 3 6H11C11.5523 6 12 6.44772 12 7C12 7.55228 11.5523 8 11 8H3C2.44772 8 2 7.55228 2 7ZM3 10C2.44772 10 2 10.4477 2 11C2 11.5523 2.44772 12 3 12H11C11.5523 12 12 11.5523 12 11C12 10.4477 11.5523 10 11 10H3ZM2 15C2 14.4477 2.44772 14 3 14H11C11.5523 14 12 14.4477 12 15C12 15.5523 11.5523 16 11 16H3C2.44772 16 2 15.5523 2 15Z" /></svg>