<svg width="19" height="20" viewBox="0 0 19 12" fill="black" xmlns="http://www.w3.org/2000/svg"><path d="M3 4.8C3 4.13726 3.44771 3.6 4 3.6C4.55229 3.6 5 4.13726 5 4.8V7.2C5 7.86274 4.55229 8.4 4 8.4C3.44771 8.4 3 7.86274 3 7.2V4.8Z" /><path d="M7 3.6C6.44771 3.6 6 4.13726 6 4.8V7.2C6 7.86274 6.44771 8.4 7 8.4C7.55229 8.4 8 7.86274 8 7.2V4.8C8 4.13726 7.55229 3.6 7 3.6Z" /><path d="M9 4.8C9 4.13726 9.44771 3.6 10 3.6C10.5523 3.6 11 4.13726 11 4.8V7.2C11 7.86274 10.5523 8.4 10 8.4C9.44771 8.4 9 7.86274 9 7.2V4.8Z" /><path d="M13 3.6C12.4477 3.6 12 4.13726 12 4.8V7.2C12 7.86274 12.4477 8.4 13 8.4C13.5523 8.4 14 7.86274 14 7.2V4.8C14 4.13726 13.5523 3.6 13 3.6Z" /><path fill-rule="evenodd" clip-rule="evenodd" d="M0 1.2C0 0.537259 0.42533 0 0.95 0H16.15C16.6747 0 17.1 0.537258 17.1 1.2V2.4H18.05C18.5747 2.4 19 2.93726 19 3.6V8.4C19 9.06274 18.5747 9.6 18.05 9.6H17.1V10.8C17.1 11.4627 16.6747 12 16.15 12H0.95C0.42533 12 0 11.4627 0 10.8V1.2ZM2.85 2.4C2.32533 2.4 1.9 2.93726 1.9 3.6V8.4C1.9 9.06274 2.32533 9.6 2.85 9.6H14.25C14.7747 9.6 15.2 9.06274 15.2 8.4V3.6C15.2 2.93726 14.7747 2.4 14.25 2.4H2.85Z" /></svg>