<svg width="19" height="16" viewBox="0 0 19 16" fill="black" xmlns="http://www.w3.org/2000/svg"><path fill-rule="evenodd" clip-rule="evenodd" d="M9.38909 15.0588C9.09323 15.0844 8.78269 14.9898 8.53553 14.7426L1.28553 7.49264C-0.428514 5.77859 -0.428509 2.99958 1.28554 1.28553C2.99958 -0.42851 5.7786 -0.428512 7.49264 1.28553L9.10355 2.89645C9.20419 2.99708 9.29943 3.10209 9.38909 3.21105C9.47876 3.10209 9.57399 2.99708 9.67462 2.89645L11.2855 1.28553C12.9996 -0.428512 15.7786 -0.42851 17.4926 1.28553C19.2067 2.99958 19.2067 5.77859 17.4926 7.49264L10.2426 14.7426C9.99549 14.9898 9.68495 15.0844 9.38909 15.0588Z" /></svg>