<svg width="17" height="15" viewBox="0 0 17 15" fill="black" xmlns="http://www.w3.org/2000/svg"><path fill-rule="evenodd" clip-rule="evenodd" d="M8.5 14.996C8.23216 15.0215 7.95102 14.9273 7.72727 14.6811L1.1638 7.46138C-0.387936 5.75449 -0.387932 2.98706 1.1638 1.28017C2.71554 -0.426723 5.2314 -0.426724 6.78313 1.28017L8.2415 2.88436C8.33261 2.98458 8.41883 3.08915 8.5 3.19765C8.58118 3.08915 8.66739 2.98458 8.7585 2.88436L10.2169 1.28017C11.7686 -0.426724 14.2845 -0.426723 15.8362 1.28017C17.3879 2.98706 17.3879 5.75449 15.8362 7.46138L9.27273 14.6811C9.04898 14.9273 8.76784 15.0215 8.5 14.996Z" /></svg>