<svg width="13" height="18" viewBox="0 0 13 18" fill="black" xmlns="http://www.w3.org/2000/svg"><path d="M5.35294 9C5.35294 8.58579 5.68873 8.25 6.10294 8.25H6.89706C7.31127 8.25 7.64706 8.58579 7.64706 9V9C7.64706 9.41421 7.31127 9.75 6.89706 9.75H6.10294C5.68873 9.75 5.35294 9.41421 5.35294 9V9Z" /><path d="M0 0.75C0 0.335786 0.335786 0 0.75 0H12.25C12.6642 0 13 0.335786 13 0.75V0.75C13 1.16421 12.6642 1.5 12.25 1.5H0.75C0.335786 1.5 0 1.16421 0 0.75V0.75Z" /><path d="M0 17.25C0 16.8358 0.335786 16.5 0.75 16.5H12.25C12.6642 16.5 13 16.8358 13 17.25V17.25C13 17.6642 12.6642 18 12.25 18H0.75C0.335786 18 0 17.6642 0 17.25V17.25Z" /><path d="M2 2.25C0.89543 2.25 -0.0293081 3.16368 0.282192 4.22342C1.09498 6.98856 3.57131 9 6.5 9C9.42869 9 11.905 6.98856 12.7178 4.22342C13.0293 3.16368 12.1046 2.25 11 2.25H2Z" /><path d="M11 15.75C12.1046 15.75 13.0293 14.8363 12.7178 13.7766C11.905 11.0114 9.42871 9 6.5 9C3.57129 9 1.09498 11.0114 0.28219 13.7766C-0.0293084 14.8363 0.895431 15.75 2 15.75H11Z" /></svg>