<svg width="17" height="17" viewBox="0 0 17 17" fill="black" xmlns="http://www.w3.org/2000/svg"><path d="M7.3913 8.5C7.3913 7.88768 7.88768 7.3913 8.5 7.3913C9.11232 7.3913 9.6087 7.88768 9.6087 8.5V12.9348C9.6087 13.5471 9.11232 14.0435 8.5 14.0435C7.88768 14.0435 7.3913 13.5471 7.3913 12.9348V8.5Z" /><path d="M8.5 4.43478C7.88768 4.43478 7.3913 4.93116 7.3913 5.54348C7.3913 6.15579 7.88768 6.65217 8.5 6.65217C9.11232 6.65217 9.6087 6.15579 9.6087 5.54348C9.6087 4.93116 9.11232 4.43478 8.5 4.43478Z" /><path fill-rule="evenodd" clip-rule="evenodd" d="M8.5 17C13.1944 17 17 13.1944 17 8.5C17 3.80558 13.1944 0 8.5 0C3.80558 0 0 3.80558 0 8.5C0 13.1944 3.80558 17 8.5 17ZM8.5 14.7826C11.9698 14.7826 14.7826 11.9698 14.7826 8.5C14.7826 5.03021 11.9698 2.21739 8.5 2.21739C5.03021 2.21739 2.21739 5.03021 2.21739 8.5C2.21739 11.9698 5.03021 14.7826 8.5 14.7826Z" /></svg>