<svg width="19" height="20" viewBox="0 0 19 10" fill="black" xmlns="http://www.w3.org/2000/svg"><path d="M4 3C3.44771 3 3 3.44771 3 4V6C3 6.55228 3.44771 7 4 7C4.55229 7 5 6.55228 5 6V4C5 3.44771 4.55229 3 4 3Z" /><path fill-rule="evenodd" clip-rule="evenodd" d="M0.95 0C0.42533 0 0 0.447716 0 1V9C0 9.55228 0.42533 10 0.95 10H16.15C16.6747 10 17.1 9.55228 17.1 9V8H18.05C18.5747 8 19 7.55228 19 7V3C19 2.44772 18.5747 2 18.05 2H17.1V1C17.1 0.447715 16.6747 0 16.15 0H0.95ZM1.9 3C1.9 2.44772 2.32533 2 2.85 2H14.25C14.7747 2 15.2 2.44772 15.2 3V7C15.2 7.55228 14.7747 8 14.25 8H2.85C2.32533 8 1.9 7.55228 1.9 7V3Z" /></svg>