<svg width="10" height="16" viewBox="0 0 10 16" fill="black" xmlns="http://www.w3.org/2000/svg"><path d="M7.73693 0.103434C7.38757 -0.109494 6.94084 0.0168668 6.73914 0.385669L1.26086 10.4023C1.05916 10.7711 1.17886 11.2427 1.52822 11.4556L3.42595 12.6122C3.77531 12.8252 4.22204 12.6988 4.42374 12.33L9.90202 2.31337C10.1037 1.94457 9.98402 1.47298 9.63466 1.26005L7.73693 0.103434Z" /><path d="M0.00121811 15.1844C-0.0322047 15.8159 0.62911 16.2189 1.13045 15.8726L3.0357 14.5566C3.49118 14.242 3.47237 13.5309 3.00098 13.2436L1.22275 12.1598C0.751362 11.8725 0.1586 12.2109 0.128234 12.7846L0.00121811 15.1844Z" /></svg>