<svg width="18" height="14" viewBox="0 0 18 14" fill="black" xmlns="http://www.w3.org/2000/svg"><path fill-rule="evenodd" clip-rule="evenodd" d="M17.5686 1.93997C18.1438 2.26455 18.1438 3.07599 17.5686 3.40056L14.333 5.2263C13.7578 5.55087 13.0388 5.14516 13.0388 4.496V3.98202L12.2309 3.98201C12.0333 3.98201 11.8426 4.04826 11.6899 4.16832C11.6467 4.20228 11.6109 4.24412 11.5776 4.28751L5.17032 12.6263C5.13699 12.6697 5.10116 12.7116 5.05797 12.7455C4.90533 12.8656 4.71462 12.9318 4.51704 12.9318H0.862816C0.386296 12.9318 0 12.5543 0 12.0886V11.1984C0 10.7327 0.386296 10.3552 0.862816 10.3552H3.32288C3.52055 10.3552 3.71134 10.2889 3.86401 10.1687C3.90706 10.1348 3.94279 10.0931 3.97605 10.0499L10.3352 1.78138C10.3685 1.73814 10.4042 1.69644 10.4473 1.66256C10.5999 1.5424 10.7907 1.4761 10.9884 1.4761L13.0388 1.42233V0.84453C13.0388 0.195379 13.7578 -0.21034 14.333 0.114235L17.5686 1.93997ZM7.16505 3.9697L5.17032 1.37364C5.13699 1.33025 5.10116 1.28841 5.05797 1.25445C4.90533 1.13438 4.71462 1.06814 4.51704 1.06814H0.862817C0.386296 1.06814 0 1.44568 0 1.91141V2.80153C0 3.26726 0.386296 3.6448 0.862816 3.6448H3.32288C3.52055 3.6448 3.71134 3.7111 3.86401 3.83126C3.90706 3.86514 3.94279 3.90684 3.97605 3.95009L5.58588 6.04327L7.16505 3.9697ZM10.2921 8.03942L8.71511 10.112L10.3352 12.2186C10.3685 12.2618 10.4042 12.3035 10.4473 12.3374C10.5999 12.4576 10.7907 12.5239 10.9884 12.5239L13.0388 12.5886V13.1555C13.0388 13.8046 13.7578 14.2103 14.333 13.8858L17.5686 12.06C18.1438 11.7355 18.1438 10.924 17.5686 10.5994L14.333 8.7737C13.7578 8.44913 13.0388 8.85485 13.0388 9.504V10.018L12.2309 10.018C12.0333 10.018 11.8426 9.95172 11.6899 9.83166C11.6467 9.7977 11.6109 9.75585 11.5776 9.71247L10.2921 8.03942Z" /></svg>