<svg width="16" height="16" viewBox="0 0 19 16" fill="black" xmlns="http://www.w3.org/2000/svg"><path d="M0.76 0C0.340264 0 0 0.358172 0 0.8C0 1.24183 0.340264 1.6 0.76 1.6H2.83438C2.83448 1.65362 2.83975 1.70821 2.85063 1.76316L4.41238 9.65413C4.43724 9.77974 4.48895 9.89253 4.56 9.98704V12C4.56 12.4418 4.90026 12.8 5.32 12.8V13.0141C4.86567 13.2907 4.56 13.8078 4.56 14.4C4.56 15.2837 5.24053 16 6.08 16C6.91947 16 7.6 15.2837 7.6 14.4C7.6 13.8078 7.29433 13.2907 6.84 13.0141V12.8H15.2V13.0141C14.7457 13.2907 14.44 13.8078 14.44 14.4C14.44 15.2837 15.1205 16 15.96 16C16.7995 16 17.48 15.2837 17.48 14.4C17.48 13.8078 17.1743 13.2907 16.72 13.0141V12.8C17.1397 12.8 17.48 12.4418 17.48 12C17.48 11.5582 17.1397 11.2 16.72 11.2H6.08V10.1474L18.3585 8.10661C18.7279 8.04522 19 7.71006 19 7.3164V1.6C19 1.15817 18.6597 0.8 18.24 0.8H4.56C4.56 0.358172 4.21974 0 3.8 0H0.76Z" /></svg>