<svg width="18" height="17" viewBox="0 0 18 17" fill="black" xmlns="http://www.w3.org/2000/svg"><path d="M4.38905 5.45398C4.60529 5.45398 4.8157 5.38389 4.98874 5.25422L10.4003 1.1988C11.0596 0.704747 12 1.17518 12 1.99903V15.001C12 15.8248 11.0596 16.2953 10.4003 15.8012L4.98874 11.7458C4.8157 11.6161 4.60529 11.546 4.38905 11.546H1C0.447716 11.546 0 11.0983 0 10.546V6.45398C0 5.90171 0.447716 5.45398 1 5.45398H4.38905Z" /><path d="M14.5587 12.8748C14.2644 12.9457 14 12.7079 14 12.4052C14 12.1523 14.1874 11.9419 14.4312 11.8748C15.9122 11.467 17 10.1106 17 8.5C17 6.88944 15.9122 5.53296 14.4312 5.12522C14.1874 5.05811 14 4.84766 14 4.59485C14 4.29212 14.2644 4.05426 14.5587 4.12525C16.5331 4.60135 18 6.37937 18 8.5C18 10.6206 16.5331 12.3987 14.5587 12.8748Z" /><path d="M14.6184 10.7365C14.3153 10.8883 14 10.6329 14 10.2939C14 10.0666 14.1494 9.8715 14.3378 9.74439C14.7373 9.47492 15 9.01813 15 8.49997C15 7.98185 14.7373 7.52506 14.3378 7.25559C14.1494 7.12845 14 6.93338 14 6.70609C14 6.36704 14.3153 6.11161 14.6184 6.26349C15.4376 6.67399 16 7.52131 16 8.49997C16 9.47867 15.4376 10.326 14.6184 10.7365Z" /></svg>