<svg width="17" height="21" viewBox="0 0 17 17" fill="fill" xmlns="http://www.w3.org/2000/svg"><path d="M1.40415 11.8937C0.381824 12.916 0.381823 14.5735 1.40415 15.5958C2.42648 16.6182 4.08401 16.6182 5.10633 15.5958L8.5 12.2022L11.8937 15.5958C12.916 16.6182 14.5735 16.6182 15.5958 15.5958C16.6182 14.5735 16.6182 12.916 15.5958 11.8937L12.2022 8.5L15.5958 5.10634C16.6182 4.08401 16.6182 2.42648 15.5958 1.40415C14.5735 0.381825 12.916 0.381826 11.8937 1.40415L8.5 4.79782L5.10633 1.40415C4.08401 0.381826 2.42648 0.381826 1.40415 1.40415C0.381823 2.42648 0.381824 4.08401 1.40415 5.10634L4.79782 8.5L1.40415 11.8937Z" /></svg>