<svg xmlns="http://www.w3.org/2000/svg" width="14" height="16" fill="black"><path d="M5.088.58a.76.76 0 0 0 .74.943h1.296a.76.76 0 0 0 .74-.943h0a.76.76 0 0 0-.74-.58H5.828a.76.76 0 0 0-.74.58h0z"/><path fill-rule="evenodd" d="M.011 4.746C-.1 3.841.652 3.048 1.619 3.048h10.129c.968 0 1.719.794 1.608 1.698l-1.214 9.905c-.094.769-.786 1.349-1.608 1.349h-7.7c-.822 0-1.514-.58-1.608-1.349L.011 4.746zm11.396.704c.056-.404-.251-.767-.682-.807s-.817.26-.858.665l-.88 8.666c-.032.315.211.592.545.622s.637-.196.681-.509l1.194-8.637zm-4.319-.879c-.445 0-.803.343-.795.762l.161 8.557c.001.041.006.08.015.119.063.268.316.467.619.467.346 0 .628-.261.634-.586l.161-8.557-.003-.078c-.034-.383-.375-.684-.792-.684zm-4.756.879c-.056-.404.251-.767.682-.807s.817.26.858.665l.878 8.649c.032.315-.211.592-.545.623s-.637-.196-.681-.51L2.333 5.45z"/><rect y=".762" width="13.762" height="1.524" rx=".762"/></svg>