<svg width="19" height="13" viewBox="0 0 19 13" fill="black" xmlns="http://www.w3.org/2000/svg"><path d="M11.1251 6.31729C12.0021 5.69142 12.5763 4.64806 12.5763 3.46667C12.5763 1.55208 11.068 0 9.20744 0C7.34684 0 5.83853 1.55208 5.83853 3.46667C5.83853 4.64806 6.41282 5.69142 7.28979 6.31729C4.59062 7.0379 2.47067 9.24401 1.79778 12.04C1.67646 12.5441 2.07135 13 2.57603 13H15.8388C16.3435 13 16.7384 12.5441 16.6171 12.04C15.9442 9.24401 13.8242 7.0379 11.1251 6.31729Z" /><path d="M13.6148 3.46667C13.6148 4.64806 13.0405 5.69142 12.1635 6.31729C14.65 6.98112 16.6449 8.90556 17.4699 11.3905H18.4104C18.7822 11.3905 19.0731 11.0562 18.9837 10.6865C18.488 8.63608 16.9264 7.01827 14.9381 6.48982C15.5841 6.03085 16.0072 5.26572 16.0072 4.39937C16.0072 2.99533 14.8961 1.85714 13.5255 1.85714C13.4286 1.85714 13.333 1.86284 13.2389 1.87392C13.4791 2.35083 13.6148 2.89244 13.6148 3.46667Z" /><path d="M0.589565 11.3489H0.806264C1.63125 8.86394 3.6262 6.9395 6.11268 6.27568C5.2357 5.64981 4.66142 4.60644 4.66142 3.42505C4.66142 2.86077 4.79243 2.32799 5.02487 1.85714C3.86893 2.07384 2.99283 3.11099 2.99283 4.35775C2.99283 5.2241 3.41586 5.98924 4.06187 6.44821C2.07358 6.97666 0.511952 8.59447 0.0162749 10.6449C-0.0730917 11.0145 0.2178 11.3489 0.589565 11.3489Z" /></svg>